HIERARCHY
ROOT joint_Root
{
	OFFSET 0.0 0.0 0.0
	CHANNELS 6 Xposition Yposition Zposition Zrotation Xrotation Yrotation 
	JOINT Hips
	{
		OFFSET -17.1583 93.1646 452.98
		CHANNELS 6 Xposition Yposition Zposition Zrotation Xrotation Yrotation 
		JOINT Spine
		{
			OFFSET 15.7357 0.0 0.0
			CHANNELS 6 Xposition Yposition Zposition Zrotation Xrotation Yrotation 
			JOINT Chest
			{
				OFFSET 8.98455 -0.406207 0.0
				CHANNELS 6 Xposition Yposition Zposition Zrotation Xrotation Yrotation 
				JOINT Neck
				{
					OFFSET 16.3773 0.0 0.0
					CHANNELS 6 Xposition Yposition Zposition Zrotation Xrotation Yrotation 
					JOINT Head
					{
						OFFSET 6.45672 0.0 0.0
						CHANNELS 6 Xposition Yposition Zposition Zrotation Xrotation Yrotation 
						End Site
						{
							OFFSET 0.0 0.0 0.0
						}
					}
				}
				JOINT Shoulder_L
				{
					OFFSET 12.9942 -0.242716 4.98039
					CHANNELS 6 Xposition Yposition Zposition Zrotation Xrotation Yrotation 
					JOINT UpperArm_L
					{
						OFFSET 5.34809 0.0 0.0
						CHANNELS 6 Xposition Yposition Zposition Zrotation Xrotation Yrotation 
						JOINT LowerArm_L
						{
							OFFSET 24.3286 1.87007e-05 0.0
							CHANNELS 6 Xposition Yposition Zposition Zrotation Xrotation Yrotation 
							JOINT Hand_L
							{
								OFFSET 22.2916 0.0 0.0
								CHANNELS 6 Xposition Yposition Zposition Zrotation Xrotation Yrotation 
								End Site
								{
									OFFSET 0.0 0.0 0.0
								}
							}
						}
					}
				}
				JOINT Shoulder_R
				{
					OFFSET 12.9945 -0.242716 -4.98039
					CHANNELS 6 Xposition Yposition Zposition Zrotation Xrotation Yrotation 
					JOINT UpperArm_R
					{
						OFFSET -5.34813 0.0 0.0
						CHANNELS 6 Xposition Yposition Zposition Zrotation Xrotation Yrotation 
						JOINT LowerArm_R
						{
							OFFSET -24.3289 0.000322201 0.0
							CHANNELS 6 Xposition Yposition Zposition Zrotation Xrotation Yrotation 
							JOINT Hand_R
							{
								OFFSET -22.2915 -0.000108084 0.0
								CHANNELS 6 Xposition Yposition Zposition Zrotation Xrotation Yrotation 
								End Site
								{
									OFFSET 0.0 0.0 0.0
								}
							}
						}
					}
				}
			}
		}
		JOINT UpperLeg_L
		{
			OFFSET -2.19248 -6.46944 0.0
			CHANNELS 6 Xposition Yposition Zposition Zrotation Xrotation Yrotation 
			JOINT LowerLeg_L
			{
				OFFSET 39.0811 0.0 -1.23785e-05
				CHANNELS 6 Xposition Yposition Zposition Zrotation Xrotation Yrotation 
				JOINT Foot_L
				{
					OFFSET 40.9854 0.0 -1.26872e-05
					CHANNELS 6 Xposition Yposition Zposition Zrotation Xrotation Yrotation 
					JOINT Toes_L
					{
						OFFSET 11.7543 0.0 0.0
						CHANNELS 6 Xposition Yposition Zposition Zrotation Xrotation Yrotation 
						End Site
						{
							OFFSET 0.0 0.0 0.0
						}
					}
				}
			}
		}
		JOINT UpperLeg_R
		{
			OFFSET -2.19251 6.46944 0.0
			CHANNELS 6 Xposition Yposition Zposition Zrotation Xrotation Yrotation 
			JOINT LowerLeg_R
			{
				OFFSET -39.0811 -0.00228153 -0.0401928
				CHANNELS 6 Xposition Yposition Zposition Zrotation Xrotation Yrotation 
				JOINT Foot_R
				{
					OFFSET -40.9854 0.0 0.0
					CHANNELS 6 Xposition Yposition Zposition Zrotation Xrotation Yrotation 
					JOINT Toes_R
					{
						OFFSET -11.7543 0.0 0.0
						CHANNELS 6 Xposition Yposition Zposition Zrotation Xrotation Yrotation 
						End Site
						{
							OFFSET 0.0 0.0 0.0
						}
					}
				}
			}
		}
	}
}
MOTION
Frames:	4
Frame Time:	0.0333333
0.000000 0.000000 0.000000 0.000000 0.000000 -0.000000 -268.964000 91.026000 240.259000 66.209300 86.043800 23.675500 15.735700 0.000005 -0.000001 58.444700 85.722300 -56.836300 8.984550 -0.406207 -0.000000 -0.408114 -4.590880 3.199980 16.377300 -0.000001 -0.000001 -1.116220 6.166670 -2.181440 6.456720 -0.000001 -0.000000 8.394830 11.255000 1.103670 12.994200 -0.242716 4.980390 -91.747000 5.861200 -73.370000 5.348090 -0.000007 -0.000001 -62.011600 -13.129700 -19.465400 24.328600 0.000019 0.000005 17.630200 6.075220 -71.579800 22.291600 -0.000001 0.000005 12.278100 4.941810 8.533450 12.994500 -0.242716 -4.980390 89.891000 0.335160 -71.991700 -5.348130 -0.000001 -0.000004 -41.348700 -23.404900 22.123500 -24.328900 0.000322 -0.000009 0.489884 4.176350 -6.711720 -22.291500 -0.000108 -0.000004 15.393000 5.140500 4.168220 -2.192480 -6.469440 -0.000000 -177.409000 -8.365270 11.831400 39.081100 -0.000007 -0.000012 -0.011999 0.063868 10.639400 40.985400 -0.000006 -0.000013 -2.343840 15.019400 -68.604500 11.754300 -0.000000 0.000003 3.345920 4.465850 -16.608800 -2.192510 6.469440 -0.000001 178.451000 -4.924010 152.440000 -39.081100 -0.002282 -0.040193 0.034167 -0.091919 18.548800 -40.985400 0.000008 0.000006 -11.119900 -2.976080 -61.466200 -11.754300 -0.000006 -0.000006 0.000126 0.165519 -9.860050
0.000000 0.000000 0.000000 0.000000 0.000000 -0.000000 -265.873000 90.307800 240.751000 58.436900 86.315300 31.621300 15.735700 0.000005 -0.000001 58.276700 85.351100 -56.578400 8.984550 -0.406207 -0.000000 0.221923 -4.999320 3.405640 16.377300 -0.000001 -0.000001 -1.551040 6.062970 -1.796760 6.456720 -0.000001 -0.000000 7.802420 11.387500 1.305190 12.994200 -0.242716 4.980390 -91.806400 6.267780 -73.887200 5.348090 -0.000007 -0.000001 -62.903800 -10.743100 -17.970800 24.328600 0.000019 0.000005 18.570000 5.147780 -75.046800 22.291600 -0.000001 0.000005 12.909900 4.968460 7.983660 12.994500 -0.242716 -4.980390 89.699400 0.920530 -71.918600 -5.348130 -0.000001 -0.000004 -42.164700 -24.753600 21.706600 -24.328900 0.000322 -0.000009 0.398402 4.349300 -5.251980 -22.291500 -0.000108 -0.000004 17.224500 5.115920 4.744500 -2.192480 -6.469440 -0.000000 -176.428000 -7.790100 13.125300 39.081100 -0.000007 -0.000012 -0.016442 0.073505 12.608600 40.985400 -0.000006 -0.000013 -2.477620 15.520100 -69.963100 11.754300 -0.000000 0.000003 3.342540 4.214290 -17.850800 -2.192510 6.469440 -0.000001 178.761000 -6.160330 151.786000 -39.081100 -0.002282 -0.040193 0.023444 -0.062303 17.896300 -40.985400 0.000008 0.000006 -10.701500 -2.489950 -62.927500 -11.754300 -0.000006 -0.000006 0.000284 0.162740 -9.972920
0.000000 0.000000 0.000000 0.000000 0.000000 -0.000000 -262.244000 89.598900 241.383000 46.343500 86.453200 43.544900 15.735700 0.000005 -0.000001 55.733600 85.175800 -53.873700 8.984550 -0.406207 -0.000000 0.304522 -5.552000 3.734430 16.377300 -0.000001 -0.000001 -1.604780 5.949240 -1.479130 6.456720 -0.000001 -0.000000 7.372820 11.425400 1.383440 12.994200 -0.242716 4.980390 -91.819000 6.378040 -74.045400 5.348090 -0.000007 -0.000001 -64.342600 -7.307680 -15.807100 24.328600 0.000019 0.000005 18.471700 4.900410 -75.655600 22.291600 -0.000001 0.000005 12.935100 5.032860 6.610560 12.994500 -0.242716 -4.980390 89.541300 1.373640 -71.531600 -5.348130 -0.000001 -0.000004 -44.527700 -24.883700 20.152200 -24.328900 0.000322 -0.000009 0.304379 4.223070 -4.140170 -22.291500 -0.000108 -0.000004 18.291300 5.089460 5.354070 -2.192480 -6.469440 -0.000000 -174.989000 -7.630240 14.322600 39.081100 -0.000007 -0.000012 -0.020677 0.079446 14.588100 40.985400 -0.000006 -0.000013 -2.762790 16.554400 -70.374500 11.754300 -0.000000 0.000003 2.783380 3.201510 -19.455300 -2.192510 6.469440 -0.000001 -179.632000 -5.381800 150.663000 -39.081100 -0.002282 -0.040193 0.020652 -0.044754 21.171400 -40.985400 0.000008 0.000006 -11.038700 -3.520600 -64.246400 -11.754300 -0.000006 -0.000006 0.000430 0.160081 -10.080800
0.000000 0.000000 0.000000 0.000000 0.000000 -0.000000 -258.080000 88.969600 242.083000 26.342700 86.731000 62.643100 15.735700 0.000005 -0.000001 48.303800 85.372500 -46.176100 8.984550 -0.406207 -0.000000 -0.733704 -6.312740 4.216310 16.377300 -0.000001 -0.000001 -1.074390 5.682540 -1.627230 6.456720 -0.000001 -0.000000 7.607260 11.170800 1.128280 12.994200 -0.242716 4.980390 -91.838500 6.365530 -73.853900 5.348090 -0.000007 -0.000001 -66.469300 -2.785900 -13.107900 24.328600 0.000019 0.000005 19.505600 6.287230 -72.822000 22.291600 -0.000001 0.000005 11.498800 5.070420 5.778120 12.994500 -0.242716 -4.980390 89.373600 1.802470 -70.834600 -5.348130 -0.000001 -0.000004 -47.209500 -23.686100 18.496500 -24.328900 0.000322 -0.000009 0.239661 3.744930 -3.680340 -22.291500 -0.000108 -0.000004 17.125100 5.089480 5.351780 -2.192480 -6.469440 -0.000000 -173.511000 -7.276870 14.915400 39.081100 -0.000007 -0.000012 -0.020650 0.070215 16.387900 40.985400 -0.000006 -0.000013 -2.815360 17.583100 -69.423100 11.754300 -0.000000 0.000003 0.887513 0.803816 -21.677400 -2.192510 6.469440 -0.000001 -176.681000 -2.796100 148.691000 -39.081100 -0.002282 -0.040193 0.067974 -0.123686 27.602100 -40.985400 0.000008 0.000006 -5.718440 -4.176620 -65.186900 -11.754300 -0.000006 -0.000006 0.000505 0.158680 -10.137700
